<svg width="497" height="415" viewBox="0 0 497 415" fill="currentColor" xmlns="http://www.w3.org/2000/svg">
<path d="M194.035 414.371L42.5751 0.307617H94.6055L219.914 338.641L194.035 414.371ZM43.1199 0.307617V407.833H85.3435V408.923H2.53079V407.833H42.0303V1.39728H0.0791016V0.307617H43.1199Z" fill="currentColor"/>
<path d="M201 0H318V1H201V0Z" fill="currentColor"/>
<path d="M283.005 414.064L131.545 0H183.575L308.884 338.334L283.005 414.064Z" fill="currentColor"/>
<path d="M313 195.258H317.158C334.337 195.258 348.921 191.325 360.91 183.457C372.9 175.589 382.026 164.503 388.289 150.199C394.552 135.715 397.684 118.728 397.684 99.2384C397.684 79.7484 394.552 62.6722 388.289 48.0099C382.026 33.1689 372.9 21.6358 360.91 13.4106C348.921 5.18545 334.337 1 317.158 1V0C344.179 0 367.71 3.48676 387.752 10.4603C407.973 17.255 423.631 27.9834 434.726 42.6457C445.821 57.1291 451.368 75.9934 451.368 99.2384C451.368 122.483 446.179 141.258 435.8 155.563C425.421 169.689 410.21 180.06 390.168 186.676C370.305 193.113 345.968 196.331 317.158 196.331L313 195.258ZM448.684 405C433.116 405 420.947 402.05 412.179 396.149C403.589 390.248 397.326 382.381 393.389 372.546C389.452 362.533 386.947 351.358 385.873 339.02C384.979 326.682 384.442 313.897 384.263 300.666C384.084 287.434 383.368 274.649 382.116 262.311C380.863 249.974 378.089 238.887 373.794 229.053C369.5 219.04 362.61 211.083 353.126 205.182C343.821 199.281 330.937 196.331 314.473 196.331L313 195.258H325.21C351.516 195.258 372.363 199.013 387.752 206.523C403.321 214.033 414.863 223.957 422.379 236.295C430.073 248.454 435.173 261.954 437.679 276.795C440.184 291.457 441.437 306.209 441.437 321.05C441.616 335.712 441.884 349.212 442.242 361.55C442.6 373.709 444.479 383.543 447.879 391.053C451.279 398.563 457.721 402.318 467.205 402.318C472.931 402.318 478.3 401.692 483.31 400.44C488.321 399.189 492.705 397.669 496.463 395.881L497 396.417C492.705 398.742 486.531 400.709 478.479 402.318C470.426 404.106 460.495 405 448.684 405Z" fill="currentColor"/>
</svg>
