<svg width="497" height="415" viewBox="0 0 497 415" fill="currentColor" xmlns="http://www.w3.org/2000/svg">
<path d="M193.956 414.371L42.5 0L94.5 0L219.835 338.641L193.956 414.371ZM43.0408 0V407.833H85.2644V408.923L0 409L0 407.833L41.9512 407.833V1L0 1L0 0L43.0408 0Z" fill="currentColor" />
<path d="M200.921 0L317.921 0V1L200.921 1V0Z" fill="currentColor" />
<path d="M273.926 414.064L122.466 0L174.496 0L299.805 338.334L273.926 414.064Z" fill="currentColor" />
<path d="M312.921 195.258H317.079C334.258 195.258 348.842 191.325 360.831 183.457C372.821 175.589 381.947 164.503 388.21 150.199C394.473 135.715 397.605 118.728 397.605 99.2384C397.605 79.7484 394.473 62.6722 388.21 48.0099C381.947 33.1689 372.821 21.6358 360.831 13.4106C348.842 5.18545 334.258 1 317.079 1V0C344.1 0 367.631 3.48676 387.673 10.4603C407.894 17.255 423.552 27.9834 434.647 42.6457C445.742 57.1291 451.289 75.9934 451.289 99.2384C451.289 122.483 446.1 141.258 435.721 155.563C425.342 169.689 410.131 180.06 390.089 186.676C370.226 193.113 345.889 196.331 317.079 196.331L312.921 195.258ZM448.605 405C433.036 405 420.868 402.05 412.1 396.149C403.51 390.248 397.247 382.381 393.31 372.546C389.373 362.533 386.868 351.358 385.794 339.02C384.9 326.682 384.363 313.897 384.184 300.666C384.005 287.434 383.289 274.649 382.036 262.311C380.784 249.973 378.01 238.887 373.715 229.053C369.421 219.04 362.531 211.083 353.047 205.182C343.742 199.281 330.858 196.331 314.394 196.331L312.921 195.258H325.131C351.436 195.258 372.284 199.013 387.673 206.523C403.242 214.033 414.784 223.957 422.3 236.295C429.994 248.454 435.094 261.954 437.6 276.795C440.105 291.457 441.358 306.209 441.358 321.05C441.536 335.712 441.805 349.212 442.163 361.55C442.521 373.709 444.4 383.543 447.8 391.053C451.2 398.563 457.642 402.318 467.126 402.318C472.852 402.318 478.221 401.692 483.231 400.44C488.242 399.189 492.626 397.669 496.384 395.881L496.921 396.417C492.626 398.742 486.452 400.709 478.4 402.318C470.347 404.106 460.415 405 448.605 405Z" fill="currentColor" />
</svg>
