<?xml version="1.0" standalone="no"?><svg xmlns:xlink="http://www.w3.org/1999/xlink" xmlns="http://www.w3.org/2000/svg" viewBox="0 0 1000 666.6666666666666" preserveAspectRatio="xMaxYMax slice"><g transform="scale(1.3831258644536653)"><rect x="0" y="0" width="723" height="482" fill="#000000"/><rect x="15.0625" y="15.0625" width="30.125" height="30.125" fill="#000000"/><polygon points="15.06,15.06 30.12,15.06 15.06,30.12" fill="#FC9D9A"/><polygon points="30.13,15.06 45.19,15.06 45.19,30.12" fill="#83AF9B"/><polygon points="15.06,30.13 30.12,30.13 30.12,45.19" fill="#FE4365"/><polygon points="30.13,30.13 45.19,45.19 30.13,45.19" fill="#83AF9B"/><rect x="75.3125" y="15.0625" width="30.125" height="30.125" fill="#000000"/><polygon points="75.31,15.06 90.37,15.06 75.31,30.12" fill="#FC9D9A"/><polygon points="105.44,15.06 105.44,30.12 90.38,30.12" fill="#FC9D9A"/><polygon points="75.31,30.13 90.37,30.13 90.37,45.19" fill="#FE4365"/><polygon points="105.44,30.13 105.44,45.19 90.38,45.19" fill="#F9CDAD"/><rect x="135.5625" y="15.0625" width="30.125" height="30.125" fill="#000000"/><polygon points="135.56,15.06 150.62,30.12 135.56,30.12" fill="#F9CDAD"/><polygon points="165.69,15.06 165.69,30.12 150.63,30.12" fill="#FC9D9A"/><polygon points="150.62,30.13 150.62,45.19 135.56,45.19" fill="#F9CDAD"/><polygon points="150.63,30.13 165.69,30.13 165.69,45.19" fill="#FE4365"/><rect x="195.8125" y="15.0625" width="30.125" height="30.125" fill="#000000"/><polygon points="195.81,15.06 210.87,15.06 195.81,30.12" fill="#F9CDAD"/><polygon points="210.88,15.06 225.94,15.06 225.94,30.12" fill="#FE4365"/><polygon points="195.81,30.13 210.87,45.19 195.81,45.19" fill="#FC9D9A"/><polygon points="225.94,30.13 225.94,45.19 210.88,45.19" fill="#FC9D9A"/><rect x="256.0625" y="15.0625" width="30.125" height="30.125" fill="#000000"/><polygon points="256.06,15.06 271.12,15.06 256.06,30.12" fill="#83AF9B"/><polygon points="271.13,15.06 286.19,15.06 286.19,30.12" fill="#FC9D9A"/><polygon points="271.12,30.13 271.12,45.19 256.06,45.19" fill="#FE4365"/><polygon points="286.19,30.13 286.19,45.19 271.13,45.19" fill="#FE4365"/><rect x="316.3125" y="15.0625" width="30.125" height="30.125" fill="#000000"/><polygon points="331.37,15.06 331.37,30.12 316.31,30.12" fill="#FC9D9A"/><polygon points="331.38,15.06 346.44,15.06 346.44,30.12" fill="#FE4365"/><polygon points="331.37,30.13 331.37,45.19 316.31,45.19" fill="#FC9D9A"/><polygon points="346.44,30.13 346.44,45.19 331.38,45.19" fill="#F9CDAD"/><rect x="376.5625" y="15.0625" width="30.125" height="30.125" fill="#000000"/><polygon points="376.56,15.06 391.62,30.12 376.56,30.12" fill="#FE4365"/><polygon points="391.63,15.06 406.69,30.12 391.63,30.12" fill="#FC9D9A"/><polygon points="376.56,30.13 391.62,30.13 391.62,45.19" fill="#C8C8A9"/><polygon points="391.63,30.13 406.69,45.19 391.63,45.19" fill="#FC9D9A"/><rect x="436.8125" y="15.0625" width="30.125" height="30.125" fill="#000000"/><polygon points="436.81,15.06 451.87,15.06 436.81,30.12" fill="#F9CDAD"/><polygon points="451.88,15.06 466.94,15.06 451.88,30.12" fill="#F9CDAD"/><polygon points="436.81,30.13 451.87,45.19 436.81,45.19" fill="#FE4365"/><polygon points="451.88,30.13 466.94,45.19 451.88,45.19" fill="#F9CDAD"/><rect x="497.0625" y="15.0625" width="30.125" height="30.125" fill="#000000"/><polygon points="497.06,15.06 512.12,15.06 512.12,30.12" fill="#FC9D9A"/><polygon points="512.13,15.06 527.1899999999999,15.06 527.1899999999999,30.12" fill="#FC9D9A"/><polygon points="497.06,30.13 512.12,45.19 497.06,45.19" fill="#FC9D9A"/><polygon points="512.13,30.13 527.1899999999999,30.13 527.1899999999999,45.19" fill="#83AF9B"/><rect x="557.3125" y="15.0625" width="30.125" height="30.125" fill="#000000"/><polygon points="557.31,15.06 572.3699999999999,30.12 557.31,30.12" fill="#FE4365"/><polygon points="587.4399999999999,15.06 587.4399999999999,30.12 572.38,30.12" fill="#83AF9B"/><polygon points="557.31,30.13 572.3699999999999,30.13 572.3699999999999,45.19" fill="#F9CDAD"/><polygon points="587.4399999999999,30.13 587.4399999999999,45.19 572.38,45.19" fill="#83AF9B"/><rect x="617.5625" y="15.0625" width="30.125" height="30.125" fill="#000000"/><polygon points="617.56,15.06 632.6199999999999,30.12 617.56,30.12" fill="#C8C8A9"/><polygon points="632.63,15.06 647.6899999999999,15.06 632.63,30.12" fill="#FC9D9A"/><polygon points="632.6199999999999,30.13 632.6199999999999,45.19 617.56,45.19" fill="#FE4365"/><polygon points="647.6899999999999,30.13 647.6899999999999,45.19 632.63,45.19" fill="#FC9D9A"/><rect x="677.8125" y="15.0625" width="30.125" height="30.125" fill="#000000"/><polygon points="677.81,15.06 692.8699999999999,15.06 692.8699999999999,30.12" fill="#F9CDAD"/><polygon points="692.88,15.06 707.9399999999999,15.06 707.9399999999999,30.12" fill="#FE4365"/><polygon points="677.81,30.13 692.8699999999999,30.13 692.8699999999999,45.19" fill="#FC9D9A"/><polygon points="692.88,30.13 707.9399999999999,30.13 692.88,45.19" fill="#FC9D9A"/><rect x="15.0625" y="75.3125" width="30.125" height="30.125" fill="#000000"/><polygon points="15.06,75.31 30.12,90.37 15.06,90.37" fill="#83AF9B"/><polygon points="45.19,75.31 45.19,90.37 30.13,90.37" fill="#C8C8A9"/><polygon points="15.06,90.38 30.12,90.38 30.12,105.44" fill="#C8C8A9"/><polygon points="30.13,90.38 45.19,90.38 45.19,105.44" fill="#83AF9B"/><rect x="75.3125" y="75.3125" width="30.125" height="30.125" fill="#000000"/><polygon points="90.37,75.31 90.37,90.37 75.31,90.37" fill="#83AF9B"/><polygon points="90.38,75.31 105.44,90.37 90.38,90.37" fill="#FE4365"/><polygon points="75.31,90.38 90.37,105.44 75.31,105.44" fill="#FE4365"/><polygon points="90.38,90.38 105.44,90.38 105.44,105.44" fill="#83AF9B"/><rect x="135.5625" y="75.3125" width="30.125" height="30.125" fill="#000000"/><polygon points="150.62,75.31 150.62,90.37 135.56,90.37" fill="#FC9D9A"/><polygon points="150.63,75.31 165.69,90.37 150.63,90.37" fill="#FC9D9A"/><polygon points="135.56,90.38 150.62,90.38 135.56,105.44" fill="#83AF9B"/><polygon points="150.63,90.38 165.69,90.38 150.63,105.44" fill="#F9CDAD"/><rect x="195.8125" y="75.3125" width="30.125" height="30.125" fill="#000000"/><polygon points="195.81,75.31 210.87,75.31 210.87,90.37" fill="#83AF9B"/><polygon points="210.88,75.31 225.94,75.31 225.94,90.37" fill="#FE4365"/><polygon points="195.81,90.38 210.87,90.38 210.87,105.44" fill="#C8C8A9"/><polygon points="225.94,90.38 225.94,105.44 210.88,105.44" fill="#F9CDAD"/><rect x="256.0625" y="75.3125" width="30.125" height="30.125" fill="#000000"/><polygon points="256.06,75.31 271.12,75.31 271.12,90.37" fill="#C8C8A9"/><polygon points="271.13,75.31 286.19,75.31 286.19,90.37" fill="#FC9D9A"/><polygon points="256.06,90.38 271.12,105.44 256.06,105.44" fill="#FE4365"/><polygon points="286.19,90.38 286.19,105.44 271.13,105.44" fill="#FE4365"/><rect x="316.3125" y="75.3125" width="30.125" height="30.125" fill="#000000"/><polygon points="316.31,75.31 331.37,75.31 316.31,90.37" fill="#FC9D9A"/><polygon points="331.38,75.31 346.44,75.31 331.38,90.37" fill="#FE4365"/><polygon points="316.31,90.38 331.37,90.38 331.37,105.44" fill="#83AF9B"/><polygon points="331.38,90.38 346.44,90.38 346.44,105.44" fill="#FC9D9A"/><rect x="376.5625" y="75.3125" width="30.125" height="30.125" fill="#000000"/><polygon points="376.56,75.31 391.62,75.31 376.56,90.37" fill="#F9CDAD"/><polygon points="391.63,75.31 406.69,75.31 391.63,90.37" fill="#C8C8A9"/><polygon points="376.56,90.38 391.62,90.38 391.62,105.44" fill="#FC9D9A"/><polygon points="391.63,90.38 406.69,90.38 391.63,105.44" fill="#FC9D9A"/><rect x="436.8125" y="75.3125" width="30.125" height="30.125" fill="#000000"/><polygon points="436.81,75.31 451.87,75.31 451.87,90.37" fill="#C8C8A9"/><polygon points="451.88,75.31 466.94,75.31 451.88,90.37" fill="#FC9D9A"/><polygon points="436.81,90.38 451.87,105.44 436.81,105.44" fill="#C8C8A9"/><polygon points="451.88,90.38 466.94,90.38 451.88,105.44" fill="#FC9D9A"/><rect x="497.0625" y="75.3125" width="30.125" height="30.125" fill="#000000"/><polygon points="512.12,75.31 512.12,90.37 497.06,90.37" fill="#FC9D9A"/><polygon points="527.1899999999999,75.31 527.1899999999999,90.37 512.13,90.37" fill="#FE4365"/><polygon points="497.06,90.38 512.12,90.38 512.12,105.44" fill="#FE4365"/><polygon points="512.13,90.38 527.1899999999999,90.38 512.13,105.44" fill="#FC9D9A"/><rect x="557.3125" y="75.3125" width="30.125" height="30.125" fill="#000000"/><polygon points="557.31,75.31 572.3699999999999,90.37 557.31,90.37" fill="#83AF9B"/><polygon points="572.38,75.31 587.4399999999999,90.37 572.38,90.37" fill="#FE4365"/><polygon points="572.3699999999999,90.38 572.3699999999999,105.44 557.31,105.44" fill="#C8C8A9"/><polygon points="572.38,90.38 587.4399999999999,90.38 572.38,105.44" fill="#FC9D9A"/><rect x="617.5625" y="75.3125" width="30.125" height="30.125" fill="#000000"/><polygon points="617.56,75.31 632.6199999999999,75.31 617.56,90.37" fill="#FC9D9A"/><polygon points="632.63,75.31 647.6899999999999,90.37 632.63,90.37" fill="#FE4365"/><polygon points="617.56,90.38 632.6199999999999,90.38 617.56,105.44" fill="#F9CDAD"/><polygon points="632.63,90.38 647.6899999999999,90.38 632.63,105.44" fill="#FC9D9A"/><rect x="677.8125" y="75.3125" width="30.125" height="30.125" fill="#000000"/><polygon points="677.81,75.31 692.8699999999999,75.31 692.8699999999999,90.37" fill="#FC9D9A"/><polygon points="692.88,75.31 707.9399999999999,90.37 692.88,90.37" fill="#C8C8A9"/><polygon points="692.8699999999999,90.38 692.8699999999999,105.44 677.81,105.44" fill="#FC9D9A"/><polygon points="707.9399999999999,90.38 707.9399999999999,105.44 692.88,105.44" fill="#FE4365"/><rect x="15.0625" y="135.5625" width="30.125" height="30.125" fill="#000000"/><polygon points="30.12,135.56 30.12,150.62 15.06,150.62" fill="#FC9D9A"/><polygon points="30.13,135.56 45.19,150.62 30.13,150.62" fill="#FE4365"/><polygon points="15.06,150.63 30.12,150.63 15.06,165.69" fill="#FE4365"/><polygon points="30.13,150.63 45.19,150.63 30.13,165.69" fill="#FE4365"/><rect x="75.3125" y="135.5625" width="30.125" height="30.125" fill="#000000"/><polygon points="75.31,135.56 90.37,135.56 75.31,150.62" fill="#C8C8A9"/><polygon points="90.38,135.56 105.44,150.62 90.38,150.62" fill="#F9CDAD"/><polygon points="75.31,150.63 90.37,165.69 75.31,165.69" fill="#F9CDAD"/><polygon points="90.38,150.63 105.44,150.63 90.38,165.69" fill="#FE4365"/><rect x="135.5625" y="135.5625" width="30.125" height="30.125" fill="#000000"/><polygon points="150.62,135.56 150.62,150.62 135.56,150.62" fill="#83AF9B"/><polygon points="165.69,135.56 165.69,150.62 150.63,150.62" fill="#F9CDAD"/><polygon points="150.62,150.63 150.62,165.69 135.56,165.69" fill="#FC9D9A"/><polygon points="150.63,150.63 165.69,150.63 165.69,165.69" fill="#FE4365"/><rect x="195.8125" y="135.5625" width="30.125" height="30.125" fill="#000000"/><polygon points="210.87,135.56 210.87,150.62 195.81,150.62" fill="#FE4365"/><polygon points="225.94,135.56 225.94,150.62 210.88,150.62" fill="#F9CDAD"/><polygon points="210.87,150.63 210.87,165.69 195.81,165.69" fill="#F9CDAD"/><polygon points="210.88,150.63 225.94,150.63 210.88,165.69" fill="#C8C8A9"/><rect x="256.0625" y="135.5625" width="30.125" height="30.125" fill="#000000"/><polygon points="256.06,135.56 271.12,150.62 256.06,150.62" fill="#C8C8A9"/><polygon points="286.19,135.56 286.19,150.62 271.13,150.62" fill="#C8C8A9"/><polygon points="256.06,150.63 271.12,150.63 256.06,165.69" fill="#C8C8A9"/><polygon points="271.13,150.63 286.19,150.63 271.13,165.69" fill="#F9CDAD"/><rect x="316.3125" y="135.5625" width="30.125" height="30.125" fill="#000000"/><polygon points="316.31,135.56 331.37,135.56 331.37,150.62" fill="#FE4365"/><polygon points="331.38,135.56 346.44,135.56 331.38,150.62" fill="#F9CDAD"/><polygon points="316.31,150.63 331.37,165.69 316.31,165.69" fill="#FE4365"/><polygon points="331.38,150.63 346.44,165.69 331.38,165.69" fill="#F9CDAD"/><rect x="376.5625" y="135.5625" width="30.125" height="30.125" fill="#000000"/><polygon points="376.56,135.56 391.62,150.62 376.56,150.62" fill="#FE4365"/><polygon points="391.63,135.56 406.69,135.56 406.69,150.62" fill="#FE4365"/><polygon points="391.62,150.63 391.62,165.69 376.56,165.69" fill="#FC9D9A"/><polygon points="391.63,150.63 406.69,165.69 391.63,165.69" fill="#FC9D9A"/><rect x="436.8125" y="135.5625" width="30.125" height="30.125" fill="#000000"/><polygon points="451.87,135.56 451.87,150.62 436.81,150.62" fill="#C8C8A9"/><polygon points="451.88,135.56 466.94,150.62 451.88,150.62" fill="#FC9D9A"/><polygon points="436.81,150.63 451.87,150.63 436.81,165.69" fill="#F9CDAD"/><polygon points="451.88,150.63 466.94,150.63 466.94,165.69" fill="#83AF9B"/><rect x="497.0625" y="135.5625" width="30.125" height="30.125" fill="#000000"/><polygon points="512.12,135.56 512.12,150.62 497.06,150.62" fill="#83AF9B"/><polygon points="512.13,135.56 527.1899999999999,135.56 527.1899999999999,150.62" fill="#C8C8A9"/><polygon points="497.06,150.63 512.12,150.63 512.12,165.69" fill="#83AF9B"/><polygon points="527.1899999999999,150.63 527.1899999999999,165.69 512.13,165.69" fill="#F9CDAD"/><rect x="557.3125" y="135.5625" width="30.125" height="30.125" fill="#000000"/><polygon points="557.31,135.56 572.3699999999999,135.56 572.3699999999999,150.62" fill="#FC9D9A"/><polygon points="572.38,135.56 587.4399999999999,150.62 572.38,150.62" fill="#FE4365"/><polygon points="572.3699999999999,150.63 572.3699999999999,165.69 557.31,165.69" fill="#FC9D9A"/><polygon points="587.4399999999999,150.63 587.4399999999999,165.69 572.38,165.69" fill="#F9CDAD"/><rect x="617.5625" y="135.5625" width="30.125" height="30.125" fill="#000000"/><polygon points="617.56,135.56 632.6199999999999,150.62 617.56,150.62" fill="#C8C8A9"/><polygon points="632.63,135.56 647.6899999999999,135.56 647.6899999999999,150.62" fill="#F9CDAD"/><polygon points="617.56,150.63 632.6199999999999,165.69 617.56,165.69" fill="#FC9D9A"/><polygon points="647.6899999999999,150.63 647.6899999999999,165.69 632.63,165.69" fill="#FC9D9A"/><rect x="677.8125" y="135.5625" width="30.125" height="30.125" fill="#000000"/><polygon points="692.8699999999999,135.56 692.8699999999999,150.62 677.81,150.62" fill="#FE4365"/><polygon points="692.88,135.56 707.9399999999999,135.56 692.88,150.62" fill="#83AF9B"/><polygon points="677.81,150.63 692.8699999999999,150.63 692.8699999999999,165.69" fill="#F9CDAD"/><polygon points="692.88,150.63 707.9399999999999,150.63 707.9399999999999,165.69" fill="#83AF9B"/><rect x="15.0625" y="195.8125" width="30.125" height="30.125" fill="#000000"/><polygon points="15.06,195.81 30.12,195.81 15.06,210.87" fill="#FC9D9A"/><polygon points="45.19,195.81 45.19,210.87 30.13,210.87" fill="#83AF9B"/><polygon points="15.06,210.88 30.12,210.88 30.12,225.94" fill="#F9CDAD"/><polygon points="30.13,210.88 45.19,225.94 30.13,225.94" fill="#83AF9B"/><rect x="75.3125" y="195.8125" width="30.125" height="30.125" fill="#000000"/><polygon points="75.31,195.81 90.37,195.81 75.31,210.87" fill="#FE4365"/><polygon points="90.38,195.81 105.44,210.87 90.38,210.87" fill="#C8C8A9"/><polygon points="75.31,210.88 90.37,225.94 75.31,225.94" fill="#F9CDAD"/><polygon points="105.44,210.88 105.44,225.94 90.38,225.94" fill="#FC9D9A"/><rect x="135.5625" y="195.8125" width="30.125" height="30.125" fill="#000000"/><polygon points="135.56,195.81 150.62,195.81 135.56,210.87" fill="#C8C8A9"/><polygon points="150.63,195.81 165.69,210.87 150.63,210.87" fill="#83AF9B"/><polygon points="135.56,210.88 150.62,210.88 150.62,225.94" fill="#FC9D9A"/><polygon points="150.63,210.88 165.69,210.88 165.69,225.94" fill="#83AF9B"/><rect x="195.8125" y="195.8125" width="30.125" height="30.125" fill="#000000"/><polygon points="195.81,195.81 210.87,195.81 195.81,210.87" fill="#F9CDAD"/><polygon points="225.94,195.81 225.94,210.87 210.88,210.87" fill="#83AF9B"/><polygon points="195.81,210.88 210.87,225.94 195.81,225.94" fill="#83AF9B"/><polygon points="210.88,210.88 225.94,210.88 225.94,225.94" fill="#C8C8A9"/><rect x="256.0625" y="195.8125" width="30.125" height="30.125" fill="#000000"/><polygon points="271.12,195.81 271.12,210.87 256.06,210.87" fill="#FC9D9A"/><polygon points="271.13,195.81 286.19,195.81 271.13,210.87" fill="#83AF9B"/><polygon points="271.12,210.88 271.12,225.94 256.06,225.94" fill="#FE4365"/><polygon points="271.13,210.88 286.19,210.88 286.19,225.94" fill="#FE4365"/><rect x="316.3125" y="195.8125" width="30.125" height="30.125" fill="#000000"/><polygon points="316.31,195.81 331.37,195.81 316.31,210.87" fill="#F9CDAD"/><polygon points="331.38,195.81 346.44,210.87 331.38,210.87" fill="#FE4365"/><polygon points="331.37,210.88 331.37,225.94 316.31,225.94" fill="#FE4365"/><polygon points="331.38,210.88 346.44,225.94 331.38,225.94" fill="#F9CDAD"/><rect x="376.5625" y="195.8125" width="30.125" height="30.125" fill="#000000"/><polygon points="376.56,195.81 391.62,210.87 376.56,210.87" fill="#83AF9B"/><polygon points="391.63,195.81 406.69,210.87 391.63,210.87" fill="#C8C8A9"/><polygon points="376.56,210.88 391.62,210.88 376.56,225.94" fill="#C8C8A9"/><polygon points="406.69,210.88 406.69,225.94 391.63,225.94" fill="#83AF9B"/><rect x="436.8125" y="195.8125" width="30.125" height="30.125" fill="#000000"/><polygon points="436.81,195.81 451.87,210.87 436.81,210.87" fill="#FC9D9A"/><polygon points="451.88,195.81 466.94,195.81 451.88,210.87" fill="#F9CDAD"/><polygon points="436.81,210.88 451.87,210.88 436.81,225.94" fill="#FE4365"/><polygon points="451.88,210.88 466.94,210.88 451.88,225.94" fill="#C8C8A9"/><rect x="497.0625" y="195.8125" width="30.125" height="30.125" fill="#000000"/><polygon points="497.06,195.81 512.12,195.81 497.06,210.87" fill="#FC9D9A"/><polygon points="512.13,195.81 527.1899999999999,195.81 512.13,210.87" fill="#FC9D9A"/><polygon points="512.12,210.88 512.12,225.94 497.06,225.94" fill="#83AF9B"/><polygon points="512.13,210.88 527.1899999999999,210.88 512.13,225.94" fill="#83AF9B"/><rect x="557.3125" y="195.8125" width="30.125" height="30.125" fill="#000000"/><polygon points="557.31,195.81 572.3699999999999,195.81 572.3699999999999,210.87" fill="#83AF9B"/><polygon points="572.38,195.81 587.4399999999999,195.81 587.4399999999999,210.87" fill="#83AF9B"/><polygon points="572.3699999999999,210.88 572.3699999999999,225.94 557.31,225.94" fill="#F9CDAD"/><polygon points="587.4399999999999,210.88 587.4399999999999,225.94 572.38,225.94" fill="#F9CDAD"/><rect x="617.5625" y="195.8125" width="30.125" height="30.125" fill="#000000"/><polygon points="632.6199999999999,195.81 632.6199999999999,210.87 617.56,210.87" fill="#83AF9B"/><polygon points="632.63,195.81 647.6899999999999,195.81 647.6899999999999,210.87" fill="#FE4365"/><polygon points="617.56,210.88 632.6199999999999,210.88 632.6199999999999,225.94" fill="#C8C8A9"/><polygon points="647.6899999999999,210.88 647.6899999999999,225.94 632.63,225.94" fill="#83AF9B"/><rect x="677.8125" y="195.8125" width="30.125" height="30.125" fill="#000000"/><polygon points="677.81,195.81 692.8699999999999,195.81 692.8699999999999,210.87" fill="#FE4365"/><polygon points="707.9399999999999,195.81 707.9399999999999,210.87 692.88,210.87" fill="#83AF9B"/><polygon points="677.81,210.88 692.8699999999999,225.94 677.81,225.94" fill="#C8C8A9"/><polygon points="692.88,210.88 707.9399999999999,210.88 692.88,225.94" fill="#C8C8A9"/><rect x="15.0625" y="256.0625" width="30.125" height="30.125" fill="#000000"/><polygon points="30.12,256.06 30.12,271.12 15.06,271.12" fill="#F9CDAD"/><polygon points="45.19,256.06 45.19,271.12 30.13,271.12" fill="#FC9D9A"/><polygon points="30.12,271.13 30.12,286.19 15.06,286.19" fill="#C8C8A9"/><polygon points="30.13,271.13 45.19,271.13 30.13,286.19" fill="#FC9D9A"/><rect x="75.3125" y="256.0625" width="30.125" height="30.125" fill="#000000"/><polygon points="75.31,256.06 90.37,256.06 90.37,271.12" fill="#83AF9B"/><polygon points="90.38,256.06 105.44,256.06 90.38,271.12" fill="#F9CDAD"/><polygon points="75.31,271.13 90.37,286.19 75.31,286.19" fill="#83AF9B"/><polygon points="90.38,271.13 105.44,271.13 90.38,286.19" fill="#FE4365"/><rect x="135.5625" y="256.0625" width="30.125" height="30.125" fill="#000000"/><polygon points="135.56,256.06 150.62,256.06 150.62,271.12" fill="#F9CDAD"/><polygon points="150.63,256.06 165.69,256.06 165.69,271.12" fill="#F9CDAD"/><polygon points="150.62,271.13 150.62,286.19 135.56,286.19" fill="#FE4365"/><polygon points="150.63,271.13 165.69,286.19 150.63,286.19" fill="#83AF9B"/><rect x="195.8125" y="256.0625" width="30.125" height="30.125" fill="#000000"/><polygon points="210.87,256.06 210.87,271.12 195.81,271.12" fill="#FC9D9A"/><polygon points="210.88,256.06 225.94,271.12 210.88,271.12" fill="#FE4365"/><polygon points="195.81,271.13 210.87,286.19 195.81,286.19" fill="#FC9D9A"/><polygon points="225.94,271.13 225.94,286.19 210.88,286.19" fill="#F9CDAD"/><rect x="256.0625" y="256.0625" width="30.125" height="30.125" fill="#000000"/><polygon points="256.06,256.06 271.12,256.06 271.12,271.12" fill="#FC9D9A"/><polygon points="271.13,256.06 286.19,256.06 286.19,271.12" fill="#FC9D9A"/><polygon points="271.12,271.13 271.12,286.19 256.06,286.19" fill="#FE4365"/><polygon points="271.13,271.13 286.19,271.13 271.13,286.19" fill="#FE4365"/><rect x="316.3125" y="256.0625" width="30.125" height="30.125" fill="#000000"/><polygon points="316.31,256.06 331.37,271.12 316.31,271.12" fill="#C8C8A9"/><polygon points="331.38,256.06 346.44,256.06 331.38,271.12" fill="#83AF9B"/><polygon points="331.37,271.13 331.37,286.19 316.31,286.19" fill="#C8C8A9"/><polygon points="331.38,271.13 346.44,271.13 331.38,286.19" fill="#F9CDAD"/><rect x="376.5625" y="256.0625" width="30.125" height="30.125" fill="#000000"/><polygon points="391.62,256.06 391.62,271.12 376.56,271.12" fill="#C8C8A9"/><polygon points="391.63,256.06 406.69,256.06 406.69,271.12" fill="#F9CDAD"/><polygon points="391.62,271.13 391.62,286.19 376.56,286.19" fill="#FC9D9A"/><polygon points="406.69,271.13 406.69,286.19 391.63,286.19" fill="#F9CDAD"/><rect x="436.8125" y="256.0625" width="30.125" height="30.125" fill="#000000"/><polygon points="436.81,256.06 451.87,256.06 436.81,271.12" fill="#83AF9B"/><polygon points="451.88,256.06 466.94,256.06 466.94,271.12" fill="#83AF9B"/><polygon points="451.87,271.13 451.87,286.19 436.81,286.19" fill="#FC9D9A"/><polygon points="451.88,271.13 466.94,271.13 451.88,286.19" fill="#83AF9B"/><rect x="497.0625" y="256.0625" width="30.125" height="30.125" fill="#000000"/><polygon points="512.12,256.06 512.12,271.12 497.06,271.12" fill="#83AF9B"/><polygon points="527.1899999999999,256.06 527.1899999999999,271.12 512.13,271.12" fill="#FE4365"/><polygon points="497.06,271.13 512.12,271.13 512.12,286.19" fill="#C8C8A9"/><polygon points="512.13,271.13 527.1899999999999,271.13 527.1899999999999,286.19" fill="#FC9D9A"/><rect x="557.3125" y="256.0625" width="30.125" height="30.125" fill="#000000"/><polygon points="572.3699999999999,256.06 572.3699999999999,271.12 557.31,271.12" fill="#C8C8A9"/><polygon points="572.38,256.06 587.4399999999999,256.06 572.38,271.12" fill="#FC9D9A"/><polygon points="557.31,271.13 572.3699999999999,271.13 572.3699999999999,286.19" fill="#C8C8A9"/><polygon points="572.38,271.13 587.4399999999999,286.19 572.38,286.19" fill="#F9CDAD"/><rect x="617.5625" y="256.0625" width="30.125" height="30.125" fill="#000000"/><polygon points="617.56,256.06 632.6199999999999,256.06 617.56,271.12" fill="#FE4365"/><polygon points="632.63,256.06 647.6899999999999,271.12 632.63,271.12" fill="#C8C8A9"/><polygon points="617.56,271.13 632.6199999999999,286.19 617.56,286.19" fill="#C8C8A9"/><polygon points="632.63,271.13 647.6899999999999,271.13 632.63,286.19" fill="#FE4365"/><rect x="677.8125" y="256.0625" width="30.125" height="30.125" fill="#000000"/><polygon points="692.8699999999999,256.06 692.8699999999999,271.12 677.81,271.12" fill="#83AF9B"/><polygon points="692.88,256.06 707.9399999999999,271.12 692.88,271.12" fill="#83AF9B"/><polygon points="677.81,271.13 692.8699999999999,271.13 692.8699999999999,286.19" fill="#83AF9B"/><polygon points="692.88,271.13 707.9399999999999,271.13 692.88,286.19" fill="#FC9D9A"/><rect x="15.0625" y="316.3125" width="30.125" height="30.125" fill="#000000"/><polygon points="15.06,316.31 30.12,316.31 30.12,331.37" fill="#FE4365"/><polygon points="30.13,316.31 45.19,316.31 30.13,331.37" fill="#83AF9B"/><polygon points="15.06,331.38 30.12,331.38 15.06,346.44" fill="#FC9D9A"/><polygon points="45.19,331.38 45.19,346.44 30.13,346.44" fill="#F9CDAD"/><rect x="75.3125" y="316.3125" width="30.125" height="30.125" fill="#000000"/><polygon points="90.37,316.31 90.37,331.37 75.31,331.37" fill="#83AF9B"/><polygon points="105.44,316.31 105.44,331.37 90.38,331.37" fill="#FC9D9A"/><polygon points="75.31,331.38 90.37,331.38 75.31,346.44" fill="#F9CDAD"/><polygon points="105.44,331.38 105.44,346.44 90.38,346.44" fill="#C8C8A9"/><rect x="135.5625" y="316.3125" width="30.125" height="30.125" fill="#000000"/><polygon points="150.62,316.31 150.62,331.37 135.56,331.37" fill="#C8C8A9"/><polygon points="150.63,316.31 165.69,316.31 165.69,331.37" fill="#F9CDAD"/><polygon points="135.56,331.38 150.62,346.44 135.56,346.44" fill="#83AF9B"/><polygon points="150.63,331.38 165.69,346.44 150.63,346.44" fill="#C8C8A9"/><rect x="195.8125" y="316.3125" width="30.125" height="30.125" fill="#000000"/><polygon points="195.81,316.31 210.87,316.31 195.81,331.37" fill="#FE4365"/><polygon points="210.88,316.31 225.94,316.31 225.94,331.37" fill="#83AF9B"/><polygon points="195.81,331.38 210.87,331.38 210.87,346.44" fill="#83AF9B"/><polygon points="210.88,331.38 225.94,331.38 225.94,346.44" fill="#FE4365"/><rect x="256.0625" y="316.3125" width="30.125" height="30.125" fill="#000000"/><polygon points="256.06,316.31 271.12,331.37 256.06,331.37" fill="#FC9D9A"/><polygon points="271.13,316.31 286.19,316.31 271.13,331.37" fill="#FE4365"/><polygon points="271.12,331.38 271.12,346.44 256.06,346.44" fill="#FC9D9A"/><polygon points="286.19,331.38 286.19,346.44 271.13,346.44" fill="#83AF9B"/><rect x="316.3125" y="316.3125" width="30.125" height="30.125" fill="#000000"/><polygon points="316.31,316.31 331.37,331.37 316.31,331.37" fill="#83AF9B"/><polygon points="346.44,316.31 346.44,331.37 331.38,331.37" fill="#C8C8A9"/><polygon points="331.37,331.38 331.37,346.44 316.31,346.44" fill="#83AF9B"/><polygon points="331.38,331.38 346.44,346.44 331.38,346.44" fill="#FC9D9A"/><rect x="376.5625" y="316.3125" width="30.125" height="30.125" fill="#000000"/><polygon points="376.56,316.31 391.62,316.31 391.62,331.37" fill="#C8C8A9"/><polygon points="406.69,316.31 406.69,331.37 391.63,331.37" fill="#FC9D9A"/><polygon points="391.62,331.38 391.62,346.44 376.56,346.44" fill="#FE4365"/><polygon points="391.63,331.38 406.69,346.44 391.63,346.44" fill="#C8C8A9"/><rect x="436.8125" y="316.3125" width="30.125" height="30.125" fill="#000000"/><polygon points="451.87,316.31 451.87,331.37 436.81,331.37" fill="#FC9D9A"/><polygon points="451.88,316.31 466.94,316.31 451.88,331.37" fill="#83AF9B"/><polygon points="451.87,331.38 451.87,346.44 436.81,346.44" fill="#83AF9B"/><polygon points="466.94,331.38 466.94,346.44 451.88,346.44" fill="#FE4365"/><rect x="497.0625" y="316.3125" width="30.125" height="30.125" fill="#000000"/><polygon points="497.06,316.31 512.12,316.31 497.06,331.37" fill="#FC9D9A"/><polygon points="512.13,316.31 527.1899999999999,331.37 512.13,331.37" fill="#FC9D9A"/><polygon points="512.12,331.38 512.12,346.44 497.06,346.44" fill="#FC9D9A"/><polygon points="527.1899999999999,331.38 527.1899999999999,346.44 512.13,346.44" fill="#C8C8A9"/><rect x="557.3125" y="316.3125" width="30.125" height="30.125" fill="#000000"/><polygon points="557.31,316.31 572.3699999999999,316.31 572.3699999999999,331.37" fill="#FE4365"/><polygon points="572.38,316.31 587.4399999999999,331.37 572.38,331.37" fill="#C8C8A9"/><polygon points="572.3699999999999,331.38 572.3699999999999,346.44 557.31,346.44" fill="#C8C8A9"/><polygon points="572.38,331.38 587.4399999999999,331.38 587.4399999999999,346.44" fill="#FC9D9A"/><rect x="617.5625" y="316.3125" width="30.125" height="30.125" fill="#000000"/><polygon points="617.56,316.31 632.6199999999999,316.31 632.6199999999999,331.37" fill="#F9CDAD"/><polygon points="632.63,316.31 647.6899999999999,331.37 632.63,331.37" fill="#F9CDAD"/><polygon points="632.6199999999999,331.38 632.6199999999999,346.44 617.56,346.44" fill="#C8C8A9"/><polygon points="647.6899999999999,331.38 647.6899999999999,346.44 632.63,346.44" fill="#F9CDAD"/><rect x="677.8125" y="316.3125" width="30.125" height="30.125" fill="#000000"/><polygon points="677.81,316.31 692.8699999999999,331.37 677.81,331.37" fill="#C8C8A9"/><polygon points="692.88,316.31 707.9399999999999,316.31 692.88,331.37" fill="#F9CDAD"/><polygon points="677.81,331.38 692.8699999999999,331.38 692.8699999999999,346.44" fill="#C8C8A9"/><polygon points="692.88,331.38 707.9399999999999,331.38 692.88,346.44" fill="#F9CDAD"/><rect x="15.0625" y="376.5625" width="30.125" height="30.125" fill="#000000"/><polygon points="15.06,376.56 30.12,391.62 15.06,391.62" fill="#83AF9B"/><polygon points="30.13,376.56 45.19,376.56 45.19,391.62" fill="#F9CDAD"/><polygon points="15.06,391.63 30.12,391.63 15.06,406.69" fill="#FC9D9A"/><polygon points="30.13,391.63 45.19,391.63 45.19,406.69" fill="#FC9D9A"/><rect x="75.3125" y="376.5625" width="30.125" height="30.125" fill="#000000"/><polygon points="75.31,376.56 90.37,376.56 90.37,391.62" fill="#FC9D9A"/><polygon points="90.38,376.56 105.44,376.56 105.44,391.62" fill="#83AF9B"/><polygon points="75.31,391.63 90.37,391.63 75.31,406.69" fill="#FE4365"/><polygon points="90.38,391.63 105.44,406.69 90.38,406.69" fill="#C8C8A9"/><rect x="135.5625" y="376.5625" width="30.125" height="30.125" fill="#000000"/><polygon points="135.56,376.56 150.62,391.62 135.56,391.62" fill="#FC9D9A"/><polygon points="150.63,376.56 165.69,376.56 150.63,391.62" fill="#C8C8A9"/><polygon points="150.62,391.63 150.62,406.69 135.56,406.69" fill="#FC9D9A"/><polygon points="150.63,391.63 165.69,391.63 165.69,406.69" fill="#C8C8A9"/><rect x="195.8125" y="376.5625" width="30.125" height="30.125" fill="#000000"/><polygon points="210.87,376.56 210.87,391.62 195.81,391.62" fill="#83AF9B"/><polygon points="210.88,376.56 225.94,376.56 210.88,391.62" fill="#FE4365"/><polygon points="195.81,391.63 210.87,406.69 195.81,406.69" fill="#C8C8A9"/><polygon points="210.88,391.63 225.94,391.63 225.94,406.69" fill="#FC9D9A"/><rect x="256.0625" y="376.5625" width="30.125" height="30.125" fill="#000000"/><polygon points="256.06,376.56 271.12,376.56 271.12,391.62" fill="#C8C8A9"/><polygon points="271.13,376.56 286.19,376.56 286.19,391.62" fill="#83AF9B"/><polygon points="256.06,391.63 271.12,406.69 256.06,406.69" fill="#F9CDAD"/><polygon points="271.13,391.63 286.19,391.63 271.13,406.69" fill="#F9CDAD"/><rect x="316.3125" y="376.5625" width="30.125" height="30.125" fill="#000000"/><polygon points="316.31,376.56 331.37,376.56 316.31,391.62" fill="#FE4365"/><polygon points="331.38,376.56 346.44,376.56 346.44,391.62" fill="#FC9D9A"/><polygon points="316.31,391.63 331.37,391.63 331.37,406.69" fill="#F9CDAD"/><polygon points="331.38,391.63 346.44,391.63 331.38,406.69" fill="#C8C8A9"/><rect x="376.5625" y="376.5625" width="30.125" height="30.125" fill="#000000"/><polygon points="376.56,376.56 391.62,376.56 391.62,391.62" fill="#FE4365"/><polygon points="406.69,376.56 406.69,391.62 391.63,391.62" fill="#C8C8A9"/><polygon points="376.56,391.63 391.62,391.63 391.62,406.69" fill="#C8C8A9"/><polygon points="391.63,391.63 406.69,406.69 391.63,406.69" fill="#C8C8A9"/><rect x="436.8125" y="376.5625" width="30.125" height="30.125" fill="#000000"/><polygon points="436.81,376.56 451.87,391.62 436.81,391.62" fill="#FC9D9A"/><polygon points="451.88,376.56 466.94,376.56 451.88,391.62" fill="#FE4365"/><polygon points="451.87,391.63 451.87,406.69 436.81,406.69" fill="#C8C8A9"/><polygon points="466.94,391.63 466.94,406.69 451.88,406.69" fill="#FE4365"/><rect x="497.0625" y="376.5625" width="30.125" height="30.125" fill="#000000"/><polygon points="497.06,376.56 512.12,391.62 497.06,391.62" fill="#F9CDAD"/><polygon points="512.13,376.56 527.1899999999999,376.56 512.13,391.62" fill="#C8C8A9"/><polygon points="497.06,391.63 512.12,391.63 512.12,406.69" fill="#FC9D9A"/><polygon points="512.13,391.63 527.1899999999999,391.63 527.1899999999999,406.69" fill="#F9CDAD"/><rect x="557.3125" y="376.5625" width="30.125" height="30.125" fill="#000000"/><polygon points="557.31,376.56 572.3699999999999,376.56 557.31,391.62" fill="#C8C8A9"/><polygon points="572.38,376.56 587.4399999999999,391.62 572.38,391.62" fill="#F9CDAD"/><polygon points="557.31,391.63 572.3699999999999,406.69 557.31,406.69" fill="#F9CDAD"/><polygon points="587.4399999999999,391.63 587.4399999999999,406.69 572.38,406.69" fill="#FC9D9A"/><rect x="617.5625" y="376.5625" width="30.125" height="30.125" fill="#000000"/><polygon points="617.56,376.56 632.6199999999999,376.56 632.6199999999999,391.62" fill="#FE4365"/><polygon points="632.63,376.56 647.6899999999999,376.56 647.6899999999999,391.62" fill="#83AF9B"/><polygon points="617.56,391.63 632.6199999999999,406.69 617.56,406.69" fill="#F9CDAD"/><polygon points="632.63,391.63 647.6899999999999,406.69 632.63,406.69" fill="#F9CDAD"/><rect x="677.8125" y="376.5625" width="30.125" height="30.125" fill="#000000"/><polygon points="692.8699999999999,376.56 692.8699999999999,391.62 677.81,391.62" fill="#FE4365"/><polygon points="692.88,376.56 707.9399999999999,376.56 707.9399999999999,391.62" fill="#FC9D9A"/><polygon points="692.8699999999999,391.63 692.8699999999999,406.69 677.81,406.69" fill="#C8C8A9"/><polygon points="692.88,391.63 707.9399999999999,391.63 692.88,406.69" fill="#C8C8A9"/><rect x="15.0625" y="436.8125" width="30.125" height="30.125" fill="#000000"/><polygon points="15.06,436.81 30.12,451.87 15.06,451.87" fill="#F9CDAD"/><polygon points="45.19,436.81 45.19,451.87 30.13,451.87" fill="#F9CDAD"/><polygon points="30.12,451.88 30.12,466.94 15.06,466.94" fill="#FE4365"/><polygon points="45.19,451.88 45.19,466.94 30.13,466.94" fill="#F9CDAD"/><rect x="75.3125" y="436.8125" width="30.125" height="30.125" fill="#000000"/><polygon points="75.31,436.81 90.37,436.81 90.37,451.87" fill="#C8C8A9"/><polygon points="90.38,436.81 105.44,436.81 105.44,451.87" fill="#C8C8A9"/><polygon points="75.31,451.88 90.37,466.94 75.31,466.94" fill="#F9CDAD"/><polygon points="90.38,451.88 105.44,466.94 90.38,466.94" fill="#83AF9B"/><rect x="135.5625" y="436.8125" width="30.125" height="30.125" fill="#000000"/><polygon points="150.62,436.81 150.62,451.87 135.56,451.87" fill="#FC9D9A"/><polygon points="165.69,436.81 165.69,451.87 150.63,451.87" fill="#83AF9B"/><polygon points="135.56,451.88 150.62,466.94 135.56,466.94" fill="#FC9D9A"/><polygon points="150.63,451.88 165.69,451.88 165.69,466.94" fill="#FE4365"/><rect x="195.8125" y="436.8125" width="30.125" height="30.125" fill="#000000"/><polygon points="210.87,436.81 210.87,451.87 195.81,451.87" fill="#FC9D9A"/><polygon points="225.94,436.81 225.94,451.87 210.88,451.87" fill="#FC9D9A"/><polygon points="195.81,451.88 210.87,451.88 210.87,466.94" fill="#FC9D9A"/><polygon points="210.88,451.88 225.94,451.88 210.88,466.94" fill="#83AF9B"/><rect x="256.0625" y="436.8125" width="30.125" height="30.125" fill="#000000"/><polygon points="271.12,436.81 271.12,451.87 256.06,451.87" fill="#F9CDAD"/><polygon points="271.13,436.81 286.19,451.87 271.13,451.87" fill="#FC9D9A"/><polygon points="256.06,451.88 271.12,466.94 256.06,466.94" fill="#F9CDAD"/><polygon points="271.13,451.88 286.19,451.88 286.19,466.94" fill="#FE4365"/><rect x="316.3125" y="436.8125" width="30.125" height="30.125" fill="#000000"/><polygon points="316.31,436.81 331.37,436.81 316.31,451.87" fill="#FC9D9A"/><polygon points="331.38,436.81 346.44,436.81 346.44,451.87" fill="#F9CDAD"/><polygon points="331.37,451.88 331.37,466.94 316.31,466.94" fill="#FE4365"/><polygon points="346.44,451.88 346.44,466.94 331.38,466.94" fill="#C8C8A9"/><rect x="376.5625" y="436.8125" width="30.125" height="30.125" fill="#000000"/><polygon points="376.56,436.81 391.62,451.87 376.56,451.87" fill="#F9CDAD"/><polygon points="391.63,436.81 406.69,436.81 406.69,451.87" fill="#FE4365"/><polygon points="391.62,451.88 391.62,466.94 376.56,466.94" fill="#FC9D9A"/><polygon points="391.63,451.88 406.69,466.94 391.63,466.94" fill="#FC9D9A"/><rect x="436.8125" y="436.8125" width="30.125" height="30.125" fill="#000000"/><polygon points="436.81,436.81 451.87,436.81 436.81,451.87" fill="#FE4365"/><polygon points="451.88,436.81 466.94,436.81 451.88,451.87" fill="#C8C8A9"/><polygon points="451.87,451.88 451.87,466.94 436.81,466.94" fill="#83AF9B"/><polygon points="451.88,451.88 466.94,466.94 451.88,466.94" fill="#FE4365"/><rect x="497.0625" y="436.8125" width="30.125" height="30.125" fill="#000000"/><polygon points="512.12,436.81 512.12,451.87 497.06,451.87" fill="#C8C8A9"/><polygon points="512.13,436.81 527.1899999999999,451.87 512.13,451.87" fill="#F9CDAD"/><polygon points="512.12,451.88 512.12,466.94 497.06,466.94" fill="#FE4365"/><polygon points="527.1899999999999,451.88 527.1899999999999,466.94 512.13,466.94" fill="#FC9D9A"/><rect x="557.3125" y="436.8125" width="30.125" height="30.125" fill="#000000"/><polygon points="557.31,436.81 572.3699999999999,436.81 572.3699999999999,451.87" fill="#FC9D9A"/><polygon points="587.4399999999999,436.81 587.4399999999999,451.87 572.38,451.87" fill="#F9CDAD"/><polygon points="557.31,451.88 572.3699999999999,451.88 557.31,466.94" fill="#C8C8A9"/><polygon points="587.4399999999999,451.88 587.4399999999999,466.94 572.38,466.94" fill="#F9CDAD"/><rect x="617.5625" y="436.8125" width="30.125" height="30.125" fill="#000000"/><polygon points="617.56,436.81 632.6199999999999,436.81 632.6199999999999,451.87" fill="#FC9D9A"/><polygon points="632.63,436.81 647.6899999999999,436.81 632.63,451.87" fill="#FC9D9A"/><polygon points="617.56,451.88 632.6199999999999,451.88 632.6199999999999,466.94" fill="#83AF9B"/><polygon points="632.63,451.88 647.6899999999999,451.88 647.6899999999999,466.94" fill="#83AF9B"/><rect x="677.8125" y="436.8125" width="30.125" height="30.125" fill="#000000"/><polygon points="677.81,436.81 692.8699999999999,451.87 677.81,451.87" fill="#F9CDAD"/><polygon points="692.88,436.81 707.9399999999999,451.87 692.88,451.87" fill="#F9CDAD"/><polygon points="677.81,451.88 692.8699999999999,451.88 677.81,466.94" fill="#FE4365"/><polygon points="692.88,451.88 707.9399999999999,451.88 692.88,466.94" fill="#FC9D9A"/></g></svg>