<?xml version="1.0" standalone="no"?><svg xmlns:xlink="http://www.w3.org/1999/xlink" xmlns="http://www.w3.org/2000/svg" viewBox="0 0 1000 1000" preserveAspectRatio="xMaxYMax slice"><g transform="scale(2.7624309392265194)"><rect x="0" y="0" width="362" height="362" fill="#ffffff"/><rect x="0" y="0" width="51.714285714285715" height="51.714285714285715" fill="#ffffff"/><rect x="0" y="0" width="25.86" height="25.86" fill="#b7b2ae"/><polygon points="0,0 25.86,25.86 0,25.86" fill="#b9b4b1"/><rect x="25.86" y="0" width="25.86" height="25.86" fill="#ffffff"/><polygon points="25.86,0 51.72,0 25.86,25.86" fill="#ffffff"/><rect x="0" y="25.86" width="25.86" height="25.86" fill="#fafaf9"/><polygon points="0,25.86 25.86,25.86 0,51.72" fill="#efeeed"/><rect x="25.86" y="25.86" width="25.86" height="25.86" fill="#dfdcdb"/><polygon points="25.86,25.86 51.72,25.86 51.72,51.72" fill="#ffffff"/><rect x="51.714285714285715" y="0" width="51.714285714285715" height="51.714285714285715" fill="#ffffff"/><rect x="51.71" y="0" width="25.86" height="25.86" fill="#ffffff"/><polygon points="51.71,0 77.57,25.86 51.71,25.86" fill="#ffffff"/><rect x="77.57" y="0" width="25.86" height="25.86" fill="#d5d2d0"/><polygon points="77.57,0 103.42999999999999,0 103.42999999999999,25.86" fill="#ada7a4"/><rect x="51.71" y="25.86" width="25.86" height="25.86" fill="#cecbc8"/><polygon points="77.57,25.86 77.57,51.72 51.71,51.72" fill="#ffffff"/><rect x="77.57" y="25.86" width="25.86" height="25.86" fill="#ffffff"/><polygon points="77.57,25.86 103.42999999999999,51.72 77.57,51.72" fill="#cbc7c4"/><rect x="103.43" y="0" width="51.71" height="51.71" fill="#e0dedd"/><polygon points="103.43,0 155.14000000000001,0 155.14000000000001,51.71" fill="#ffffff"/><rect x="155.14285714285714" y="0" width="51.714285714285715" height="51.714285714285715" fill="#ffffff"/><rect x="155.14" y="0" width="25.86" height="25.86" fill="#ffffff"/><polygon points="181,0 181,25.86 155.14,25.86" fill="#ffffff"/><rect x="181" y="0" width="25.86" height="25.86" fill="#dedcda"/><polygon points="181,0 206.86,0 181,25.86" fill="#dcdad8"/><rect x="155.14" y="25.86" width="25.86" height="25.86" fill="#ffffff"/><polygon points="155.14,25.86 181,51.72 155.14,51.72" fill="#ffffff"/><rect x="181" y="25.86" width="25.86" height="25.86" fill="#b4afac"/><polygon points="181,25.86 206.86,25.86 206.86,51.72" fill="#c0bcb9"/><rect x="206.86" y="0" width="51.71" height="51.71" fill="#fdfdfd"/><polygon points="258.57,0 258.57,51.71 206.86,51.71" fill="#ffffff"/><rect x="258.57" y="0" width="51.71" height="51.71" fill="#fbfbfa"/><polygon points="310.28,0 310.28,51.71 258.57,51.71" fill="#f1f0f0"/><rect x="310.2857142857143" y="0" width="51.714285714285715" height="51.714285714285715" fill="#ffffff"/><rect x="310.29" y="0" width="25.86" height="25.86" fill="#ffffff"/><polygon points="310.29,0 336.15000000000003,0 310.29,25.86" fill="#a9a39f"/><rect x="336.14" y="0" width="25.86" height="25.86" fill="#b5b0ac"/><polygon points="336.14,0 362,0 336.14,25.86" fill="#c5c1bf"/><rect x="310.29" y="25.86" width="25.86" height="25.86" fill="#c6c2bf"/><polygon points="310.29,25.86 336.15000000000003,25.86 310.29,51.72" fill="#bebab7"/><rect x="336.14" y="25.86" width="25.86" height="25.86" fill="#ffffff"/><polygon points="336.14,25.86 362,25.86 336.14,51.72" fill="#ffffff"/><rect x="0" y="51.714285714285715" width="51.714285714285715" height="51.714285714285715" fill="#ffffff"/><rect x="0" y="51.71" width="25.86" height="25.86" fill="#a9a39f"/><polygon points="0,51.71 25.86,51.71 0,77.57" fill="#d9d6d4"/><rect x="25.86" y="51.71" width="25.86" height="25.86" fill="#ffffff"/><polygon points="25.86,51.71 51.72,51.71 25.86,77.57" fill="#ffffff"/><rect x="0" y="77.57" width="25.86" height="25.86" fill="#d8d5d3"/><polygon points="25.86,77.57 25.86,103.42999999999999 0,103.42999999999999" fill="#ffffff"/><rect x="25.86" y="77.57" width="25.86" height="25.86" fill="#dfdddc"/><polygon points="25.86,77.57 51.72,103.42999999999999 25.86,103.42999999999999" fill="#e3e1e0"/><rect x="51.714285714285715" y="51.714285714285715" width="51.714285714285715" height="51.714285714285715" fill="#ffffff"/><rect x="51.71" y="51.71" width="25.86" height="25.86" fill="#b5b0ac"/><polygon points="51.71,51.71 77.57,77.57 51.71,77.57" fill="#cfccc9"/><rect x="77.57" y="51.71" width="25.86" height="25.86" fill="#ffffff"/><polygon points="77.57,51.71 103.42999999999999,51.71 103.42999999999999,77.57" fill="#ffffff"/><rect x="51.71" y="77.57" width="25.86" height="25.86" fill="#d7d4d3"/><polygon points="51.71,77.57 77.57,77.57 51.71,103.42999999999999" fill="#ffffff"/><rect x="77.57" y="77.57" width="25.86" height="25.86" fill="#ffffff"/><polygon points="103.42999999999999,77.57 103.42999999999999,103.42999999999999 77.57,103.42999999999999" fill="#ffffff"/><rect x="103.42857142857143" y="51.714285714285715" width="51.714285714285715" height="51.714285714285715" fill="#ffffff"/><rect x="103.43" y="51.71" width="25.86" height="25.86" fill="#ffffff"/><polygon points="103.43,51.71 129.29000000000002,51.71 129.29000000000002,77.57" fill="#ffffff"/><rect x="129.29" y="51.71" width="25.86" height="25.86" fill="#ffffff"/><polygon points="129.29,51.71 155.14999999999998,51.71 129.29,77.57" fill="#ffffff"/><rect x="103.43" y="77.57" width="25.86" height="25.86" fill="#d4d1cf"/><polygon points="103.43,77.57 129.29000000000002,103.42999999999999 103.43,103.42999999999999" fill="#ffffff"/><rect x="129.29" y="77.57" width="25.86" height="25.86" fill="#e2e0df"/><polygon points="129.29,77.57 155.14999999999998,77.57 129.29,103.42999999999999" fill="#b5b0ad"/><rect x="155.14" y="51.71" width="51.71" height="51.71" fill="#d8d6d4"/><polygon points="155.14,51.71 206.85,51.71 206.85,103.42" fill="#ffffff"/><rect x="206.85714285714286" y="51.714285714285715" width="51.714285714285715" height="51.714285714285715" fill="#ffffff"/><rect x="206.86" y="51.71" width="25.86" height="25.86" fill="#e4e2e1"/><polygon points="206.86,51.71 232.72000000000003,77.57 206.86,77.57" fill="#ffffff"/><rect x="232.71" y="51.71" width="25.86" height="25.86" fill="#ffffff"/><polygon points="232.71,51.71 258.57,51.71 232.71,77.57" fill="#ffffff"/><rect x="206.86" y="77.57" width="25.86" height="25.86" fill="#beb9b6"/><polygon points="206.86,77.57 232.72000000000003,77.57 232.72000000000003,103.42999999999999" fill="#ffffff"/><rect x="232.71" y="77.57" width="25.86" height="25.86" fill="#ffffff"/><polygon points="232.71,77.57 258.57,103.42999999999999 232.71,103.42999999999999" fill="#ffffff"/><rect x="258.57142857142856" y="51.714285714285715" width="51.714285714285715" height="51.714285714285715" fill="#ffffff"/><rect x="258.57" y="51.71" width="25.86" height="25.86" fill="#dad8d6"/><polygon points="284.43,51.71 284.43,77.57 258.57,77.57" fill="#ffffff"/><rect x="284.43" y="51.71" width="25.86" height="25.86" fill="#ffffff"/><polygon points="284.43,51.71 310.29,77.57 284.43,77.57" fill="#ffffff"/><rect x="258.57" y="77.57" width="25.86" height="25.86" fill="#b6b1ad"/><polygon points="258.57,77.57 284.43,77.57 258.57,103.42999999999999" fill="#fefefe"/><rect x="284.43" y="77.57" width="25.86" height="25.86" fill="#ffffff"/><polygon points="310.29,77.57 310.29,103.42999999999999 284.43,103.42999999999999" fill="#ffffff"/><rect x="310.2857142857143" y="51.714285714285715" width="51.714285714285715" height="51.714285714285715" fill="#ffffff"/><rect x="310.29" y="51.71" width="25.86" height="25.86" fill="#ffffff"/><polygon points="310.29,51.71 336.15000000000003,51.71 336.15000000000003,77.57" fill="#fafaf9"/><rect x="336.14" y="51.71" width="25.86" height="25.86" fill="#ffffff"/><polygon points="336.14,51.71 362,51.71 362,77.57" fill="#e0dedc"/><rect x="310.29" y="77.57" width="25.86" height="25.86" fill="#d1cecc"/><polygon points="336.15000000000003,77.57 336.15000000000003,103.42999999999999 310.29,103.42999999999999" fill="#ffffff"/><rect x="336.14" y="77.57" width="25.86" height="25.86" fill="#ffffff"/><polygon points="336.14,77.57 362,103.42999999999999 336.14,103.42999999999999" fill="#ffffff"/><rect x="0" y="103.42857142857143" width="51.714285714285715" height="51.714285714285715" fill="#ffffff"/><rect x="0" y="103.43" width="25.86" height="25.86" fill="#d5d2d0"/><polygon points="25.86,103.43 25.86,129.29000000000002 0,129.29000000000002" fill="#ffffff"/><rect x="25.86" y="103.43" width="25.86" height="25.86" fill="#ffffff"/><polygon points="25.86,103.43 51.72,129.29000000000002 25.86,129.29000000000002" fill="#ffffff"/><rect x="0" y="129.29" width="25.86" height="25.86" fill="#aea9a5"/><polygon points="0,129.29 25.86,155.14999999999998 0,155.14999999999998" fill="#ffffff"/><rect x="25.86" y="129.29" width="25.86" height="25.86" fill="#ffffff"/><polygon points="51.72,129.29 51.72,155.14999999999998 25.86,155.14999999999998" fill="#d4d1cf"/><rect x="51.71" y="103.43" width="51.71" height="51.71" fill="#ffffff"/><polygon points="51.71,103.43 103.42,155.14000000000001 51.71,155.14000000000001" fill="#c5c1be"/><rect x="103.42857142857143" y="103.42857142857143" width="51.714285714285715" height="51.714285714285715" fill="#ffffff"/><rect x="103.43" y="103.43" width="25.86" height="25.86" fill="#e3e1e0"/><polygon points="103.43,103.43 129.29000000000002,103.43 129.29000000000002,129.29000000000002" fill="#dddbd9"/><rect x="129.29" y="103.43" width="25.86" height="25.86" fill="#f9f9f8"/><polygon points="129.29,103.43 155.14999999999998,103.43 155.14999999999998,129.29000000000002" fill="#ffffff"/><rect x="103.43" y="129.29" width="25.86" height="25.86" fill="#c7c3c0"/><polygon points="103.43,129.29 129.29000000000002,129.29 103.43,155.14999999999998" fill="#eeeded"/><rect x="129.29" y="129.29" width="25.86" height="25.86" fill="#c5c1be"/><polygon points="155.14999999999998,129.29 155.14999999999998,155.14999999999998 129.29,155.14999999999998" fill="#fdfdfd"/><rect x="155.14" y="103.43" width="51.71" height="51.71" fill="#dfdddb"/><polygon points="155.14,103.43 206.85,103.43 155.14,155.14000000000001" fill="#ffffff"/><rect x="206.85714285714286" y="103.42857142857143" width="51.714285714285715" height="51.714285714285715" fill="#ffffff"/><rect x="206.86" y="103.43" width="25.86" height="25.86" fill="#ffffff"/><polygon points="206.86,103.43 232.72000000000003,103.43 232.72000000000003,129.29000000000002" fill="#ffffff"/><rect x="232.71" y="103.43" width="25.86" height="25.86" fill="#ccc8c6"/><polygon points="258.57,103.43 258.57,129.29000000000002 232.71,129.29000000000002" fill="#ffffff"/><rect x="206.86" y="129.29" width="25.86" height="25.86" fill="#ffffff"/><polygon points="206.86,129.29 232.72000000000003,129.29 232.72000000000003,155.14999999999998" fill="#dfdddc"/><rect x="232.71" y="129.29" width="25.86" height="25.86" fill="#b0aaa6"/><polygon points="258.57,129.29 258.57,155.14999999999998 232.71,155.14999999999998" fill="#d6d4d2"/><rect x="258.57" y="103.43" width="51.71" height="51.71" fill="#ecebea"/><polygon points="258.57,103.43 310.28,103.43 258.57,155.14000000000001" fill="#cbc8c5"/><rect x="310.2857142857143" y="103.42857142857143" width="51.714285714285715" height="51.714285714285715" fill="#ffffff"/><rect x="310.29" y="103.43" width="25.86" height="25.86" fill="#d2cfcd"/><polygon points="310.29,103.43 336.15000000000003,129.29000000000002 310.29,129.29000000000002" fill="#e6e4e3"/><rect x="336.14" y="103.43" width="25.86" height="25.86" fill="#afaaa6"/><polygon points="362,103.43 362,129.29000000000002 336.14,129.29000000000002" fill="#f4f3f3"/><rect x="310.29" y="129.29" width="25.86" height="25.86" fill="#ffffff"/><polygon points="310.29,129.29 336.15000000000003,129.29 310.29,155.14999999999998" fill="#ffffff"/><rect x="336.14" y="129.29" width="25.86" height="25.86" fill="#f9f9f9"/><polygon points="336.14,129.29 362,129.29 336.14,155.14999999999998" fill="#e2e0df"/><rect x="0" y="155.14" width="51.71" height="51.71" fill="#ebeae9"/><polygon points="0,155.14 51.71,155.14 0,206.85" fill="#ffffff"/><rect x="51.714285714285715" y="155.14285714285714" width="51.714285714285715" height="51.714285714285715" fill="#ffffff"/><rect x="51.71" y="155.14" width="25.86" height="25.86" fill="#d3cfcd"/><polygon points="51.71,155.14 77.57,181 51.71,181" fill="#ffffff"/><rect x="77.57" y="155.14" width="25.86" height="25.86" fill="#ffffff"/><polygon points="77.57,155.14 103.42999999999999,155.14 77.57,181" fill="#cecac8"/><rect x="51.71" y="181" width="25.86" height="25.86" fill="#ffffff"/><polygon points="77.57,181 77.57,206.86 51.71,206.86" fill="#ffffff"/><rect x="77.57" y="181" width="25.86" height="25.86" fill="#ffffff"/><polygon points="77.57,181 103.42999999999999,206.86 77.57,206.86" fill="#ffffff"/><rect x="103.43" y="155.14" width="51.71" height="51.71" fill="#ffffff"/><polygon points="103.43,155.14 155.14000000000001,155.14 103.43,206.85" fill="#e3e1e0"/><rect x="155.14" y="155.14" width="51.71" height="51.71" fill="#ffffff"/><polygon points="155.14,155.14 206.85,155.14 206.85,206.85" fill="#f3f2f2"/><rect x="206.86" y="155.14" width="51.71" height="51.71" fill="#c6c2bf"/><polygon points="206.86,155.14 258.57,155.14 206.86,206.85" fill="#ffffff"/><rect x="258.57142857142856" y="155.14285714285714" width="51.714285714285715" height="51.714285714285715" fill="#ffffff"/><rect x="258.57" y="155.14" width="25.86" height="25.86" fill="#ffffff"/><polygon points="258.57,155.14 284.43,155.14 258.57,181" fill="#ffffff"/><rect x="284.43" y="155.14" width="25.86" height="25.86" fill="#ffffff"/><polygon points="284.43,155.14 310.29,155.14 310.29,181" fill="#ffffff"/><rect x="258.57" y="181" width="25.86" height="25.86" fill="#ffffff"/><polygon points="284.43,181 284.43,206.86 258.57,206.86" fill="#eeedec"/><rect x="284.43" y="181" width="25.86" height="25.86" fill="#ffffff"/><polygon points="284.43,181 310.29,181 284.43,206.86" fill="#e7e5e4"/><rect x="310.2857142857143" y="155.14285714285714" width="51.714285714285715" height="51.714285714285715" fill="#ffffff"/><rect x="310.29" y="155.14" width="25.86" height="25.86" fill="#aaa4a1"/><polygon points="310.29,155.14 336.15000000000003,181 310.29,181" fill="#ffffff"/><rect x="336.14" y="155.14" width="25.86" height="25.86" fill="#b2ada9"/><polygon points="336.14,155.14 362,181 336.14,181" fill="#ada7a3"/><rect x="310.29" y="181" width="25.86" height="25.86" fill="#c7c3c1"/><polygon points="310.29,181 336.15000000000003,181 336.15000000000003,206.86" fill="#ffffff"/><rect x="336.14" y="181" width="25.86" height="25.86" fill="#f9f9f9"/><polygon points="336.14,181 362,181 336.14,206.86" fill="#b7b2af"/><rect x="0" y="206.85714285714286" width="51.714285714285715" height="51.714285714285715" fill="#ffffff"/><rect x="0" y="206.86" width="25.86" height="25.86" fill="#ffffff"/><polygon points="0,206.86 25.86,232.72000000000003 0,232.72000000000003" fill="#c6c2bf"/><rect x="25.86" y="206.86" width="25.86" height="25.86" fill="#ffffff"/><polygon points="51.72,206.86 51.72,232.72000000000003 25.86,232.72000000000003" fill="#ffffff"/><rect x="0" y="232.71" width="25.86" height="25.86" fill="#ffffff"/><polygon points="25.86,232.71 25.86,258.57 0,258.57" fill="#ffffff"/><rect x="25.86" y="232.71" width="25.86" height="25.86" fill="#ffffff"/><polygon points="51.72,232.71 51.72,258.57 25.86,258.57" fill="#ffffff"/><rect x="51.714285714285715" y="206.85714285714286" width="51.714285714285715" height="51.714285714285715" fill="#ffffff"/><rect x="51.71" y="206.86" width="25.86" height="25.86" fill="#ffffff"/><polygon points="51.71,206.86 77.57,232.72000000000003 51.71,232.72000000000003" fill="#ffffff"/><rect x="77.57" y="206.86" width="25.86" height="25.86" fill="#ffffff"/><polygon points="77.57,206.86 103.42999999999999,206.86 103.42999999999999,232.72000000000003" fill="#ffffff"/><rect x="51.71" y="232.71" width="25.86" height="25.86" fill="#c7c3c0"/><polygon points="51.71,232.71 77.57,258.57 51.71,258.57" fill="#ffffff"/><rect x="77.57" y="232.71" width="25.86" height="25.86" fill="#ffffff"/><polygon points="77.57,232.71 103.42999999999999,258.57 77.57,258.57" fill="#ffffff"/><rect x="103.42857142857143" y="206.85714285714286" width="51.714285714285715" height="51.714285714285715" fill="#ffffff"/><rect x="103.43" y="206.86" width="25.86" height="25.86" fill="#ffffff"/><polygon points="129.29000000000002,206.86 129.29000000000002,232.72000000000003 103.43,232.72000000000003" fill="#ffffff"/><rect x="129.29" y="206.86" width="25.86" height="25.86" fill="#ffffff"/><polygon points="155.14999999999998,206.86 155.14999999999998,232.72000000000003 129.29,232.72000000000003" fill="#ffffff"/><rect x="103.43" y="232.71" width="25.86" height="25.86" fill="#ffffff"/><polygon points="103.43,232.71 129.29000000000002,232.71 129.29000000000002,258.57" fill="#f5f5f4"/><rect x="129.29" y="232.71" width="25.86" height="25.86" fill="#ffffff"/><polygon points="129.29,232.71 155.14999999999998,258.57 129.29,258.57" fill="#ffffff"/><rect x="155.14285714285714" y="206.85714285714286" width="51.714285714285715" height="51.714285714285715" fill="#ffffff"/><rect x="155.14" y="206.86" width="25.86" height="25.86" fill="#a9a39f"/><polygon points="155.14,206.86 181,206.86 155.14,232.72000000000003" fill="#d3d0ce"/><rect x="181" y="206.86" width="25.86" height="25.86" fill="#ccc9c7"/><polygon points="181,206.86 206.86,232.72000000000003 181,232.72000000000003" fill="#beb9b6"/><rect x="155.14" y="232.71" width="25.86" height="25.86" fill="#dddad9"/><polygon points="155.14,232.71 181,258.57 155.14,258.57" fill="#c0bbb8"/><rect x="181" y="232.71" width="25.86" height="25.86" fill="#ffffff"/><polygon points="206.86,232.71 206.86,258.57 181,258.57" fill="#b8b3af"/><rect x="206.85714285714286" y="206.85714285714286" width="51.714285714285715" height="51.714285714285715" fill="#ffffff"/><rect x="206.86" y="206.86" width="25.86" height="25.86" fill="#bebab7"/><polygon points="232.72000000000003,206.86 232.72000000000003,232.72000000000003 206.86,232.72000000000003" fill="#b8b3b0"/><rect x="232.71" y="206.86" width="25.86" height="25.86" fill="#ccc8c6"/><polygon points="232.71,206.86 258.57,232.72000000000003 232.71,232.72000000000003" fill="#ffffff"/><rect x="206.86" y="232.71" width="25.86" height="25.86" fill="#bcb8b5"/><polygon points="206.86,232.71 232.72000000000003,232.71 206.86,258.57" fill="#ffffff"/><rect x="232.71" y="232.71" width="25.86" height="25.86" fill="#b4afab"/><polygon points="232.71,232.71 258.57,258.57 232.71,258.57" fill="#f5f4f4"/><rect x="258.57" y="206.86" width="51.71" height="51.71" fill="#b7b2af"/><polygon points="258.57,206.86 310.28,206.86 310.28,258.57" fill="#d2cfcd"/><rect x="310.29" y="206.86" width="51.71" height="51.71" fill="#ecebea"/><polygon points="310.29,206.86 362,206.86 362,258.57" fill="#e6e5e4"/><rect x="0" y="258.57142857142856" width="51.714285714285715" height="51.714285714285715" fill="#ffffff"/><rect x="0" y="258.57" width="25.86" height="25.86" fill="#dcdad8"/><polygon points="0,258.57 25.86,284.43 0,284.43" fill="#d0cdcb"/><rect x="25.86" y="258.57" width="25.86" height="25.86" fill="#b7b2af"/><polygon points="25.86,258.57 51.72,258.57 51.72,284.43" fill="#ffffff"/><rect x="0" y="284.43" width="25.86" height="25.86" fill="#c8c4c1"/><polygon points="0,284.43 25.86,284.43 25.86,310.29" fill="#c0bbb8"/><rect x="25.86" y="284.43" width="25.86" height="25.86" fill="#dddad9"/><polygon points="25.86,284.43 51.72,284.43 51.72,310.29" fill="#ffffff"/><rect x="51.71" y="258.57" width="51.71" height="51.71" fill="#c2bebb"/><polygon points="51.71,258.57 103.42,258.57 51.71,310.28" fill="#aaa4a0"/><rect x="103.43" y="258.57" width="51.71" height="51.71" fill="#cecbc8"/><polygon points="103.43,258.57 155.14000000000001,258.57 155.14000000000001,310.28" fill="#ffffff"/><rect x="155.14" y="258.57" width="51.71" height="51.71" fill="#ffffff"/><polygon points="155.14,258.57 206.85,258.57 155.14,310.28" fill="#cecbc8"/><rect x="206.86" y="258.57" width="51.71" height="51.71" fill="#ffffff"/><polygon points="258.57,258.57 258.57,310.28 206.86,310.28" fill="#cac7c4"/><rect x="258.57142857142856" y="258.57142857142856" width="51.714285714285715" height="51.714285714285715" fill="#ffffff"/><rect x="258.57" y="258.57" width="25.86" height="25.86" fill="#ffffff"/><polygon points="258.57,258.57 284.43,258.57 258.57,284.43" fill="#e5e4e2"/><rect x="284.43" y="258.57" width="25.86" height="25.86" fill="#ffffff"/><polygon points="284.43,258.57 310.29,258.57 284.43,284.43" fill="#ffffff"/><rect x="258.57" y="284.43" width="25.86" height="25.86" fill="#b6b1ae"/><polygon points="258.57,284.43 284.43,284.43 258.57,310.29" fill="#ffffff"/><rect x="284.43" y="284.43" width="25.86" height="25.86" fill="#b3aeab"/><polygon points="284.43,284.43 310.29,284.43 284.43,310.29" fill="#ffffff"/><rect x="310.29" y="258.57" width="51.71" height="51.71" fill="#ffffff"/><polygon points="310.29,258.57 362,258.57 310.29,310.28" fill="#ffffff"/><rect x="0" y="310.29" width="51.71" height="51.71" fill="#ffffff"/><polygon points="0,310.29 51.71,310.29 0,362" fill="#e4e2e1"/><rect x="51.714285714285715" y="310.2857142857143" width="51.714285714285715" height="51.714285714285715" fill="#ffffff"/><rect x="51.71" y="310.29" width="25.86" height="25.86" fill="#f2f1f0"/><polygon points="51.71,310.29 77.57,336.15000000000003 51.71,336.15000000000003" fill="#cecac8"/><rect x="77.57" y="310.29" width="25.86" height="25.86" fill="#ffffff"/><polygon points="77.57,310.29 103.42999999999999,310.29 103.42999999999999,336.15000000000003" fill="#ffffff"/><rect x="51.71" y="336.14" width="25.86" height="25.86" fill="#ffffff"/><polygon points="51.71,336.14 77.57,336.14 77.57,362" fill="#fbfbfa"/><rect x="77.57" y="336.14" width="25.86" height="25.86" fill="#ffffff"/><polygon points="77.57,336.14 103.42999999999999,336.14 77.57,362" fill="#d4d1cf"/><rect x="103.42857142857143" y="310.2857142857143" width="51.714285714285715" height="51.714285714285715" fill="#ffffff"/><rect x="103.43" y="310.29" width="25.86" height="25.86" fill="#b6b1ae"/><polygon points="103.43,310.29 129.29000000000002,336.15000000000003 103.43,336.15000000000003" fill="#d3d0ce"/><rect x="129.29" y="310.29" width="25.86" height="25.86" fill="#ffffff"/><polygon points="155.14999999999998,310.29 155.14999999999998,336.15000000000003 129.29,336.15000000000003" fill="#ffffff"/><rect x="103.43" y="336.14" width="25.86" height="25.86" fill="#f8f7f7"/><polygon points="103.43,336.14 129.29000000000002,362 103.43,362" fill="#ffffff"/><rect x="129.29" y="336.14" width="25.86" height="25.86" fill="#ffffff"/><polygon points="155.14999999999998,336.14 155.14999999999998,362 129.29,362" fill="#ffffff"/><rect x="155.14" y="310.29" width="51.71" height="51.71" fill="#ebe9e8"/><polygon points="206.85,310.29 206.85,362 155.14,362" fill="#ffffff"/><rect x="206.85714285714286" y="310.2857142857143" width="51.714285714285715" height="51.714285714285715" fill="#ffffff"/><rect x="206.86" y="310.29" width="25.86" height="25.86" fill="#ffffff"/><polygon points="206.86,310.29 232.72000000000003,310.29 206.86,336.15000000000003" fill="#aaa4a0"/><rect x="232.71" y="310.29" width="25.86" height="25.86" fill="#ffffff"/><polygon points="232.71,310.29 258.57,310.29 258.57,336.15000000000003" fill="#ffffff"/><rect x="206.86" y="336.14" width="25.86" height="25.86" fill="#ffffff"/><polygon points="206.86,336.14 232.72000000000003,336.14 206.86,362" fill="#dcdad8"/><rect x="232.71" y="336.14" width="25.86" height="25.86" fill="#ffffff"/><polygon points="232.71,336.14 258.57,336.14 258.57,362" fill="#c8c4c1"/><rect x="258.57" y="310.29" width="51.71" height="51.71" fill="#cdc9c7"/><polygon points="258.57,310.29 310.28,310.29 310.28,362" fill="#ffffff"/><rect x="310.29" y="310.29" width="51.71" height="51.71" fill="#d2cfcd"/><polygon points="310.29,310.29 362,310.29 362,362" fill="#edeceb"/></g></svg>